<svg width="1200" height="720" viewBox="0 0 1200 720" fill="none" xmlns="http://www.w3.org/2000/svg" role="img" aria-labelledby="title desc">
  <title id="title">MESOTES benchmark scorecard</title>
  <desc id="desc">A clearer scorecard figure showing how to read a MESOTES benchmark run through core task metrics, family behavior metrics, and review metadata.</desc>
  <defs>
    <style>
      .title { fill: #1E2A38; font-family: Georgia, 'Times New Roman', serif; font-size: 38px; font-weight: 700; }
      .subtitle { fill: #556270; font-family: Arial, Helvetica, sans-serif; font-size: 19px; }
      .label { font-family: Arial, Helvetica, sans-serif; font-size: 16px; font-weight: 700; letter-spacing: 1px; }
      .cardtitle { fill: #1E2A38; font-family: Arial, Helvetica, sans-serif; font-size: 24px; font-weight: 700; }
      .body { fill: #425164; font-family: Arial, Helvetica, sans-serif; font-size: 18px; }
      .chiptext { fill: #243242; font-family: Arial, Helvetica, sans-serif; font-size: 16px; font-weight: 700; }
      .footernum { fill: #1E2A38; font-family: Arial, Helvetica, sans-serif; font-size: 24px; font-weight: 700; }
      .footertext { fill: #425164; font-family: Arial, Helvetica, sans-serif; font-size: 17px; }
    </style>
  </defs>

  <rect width="1200" height="720" rx="28" fill="#F7F3EA"/>
  <rect x="34" y="34" width="1132" height="652" rx="24" fill="#FFFDFC" stroke="#D8CFC1" stroke-width="2"/>

  <text x="70" y="96" class="title">What a MESOTES run tells you</text>
  <text x="70" y="128" class="subtitle">Read the run in three layers:</text>
  <text x="70" y="154" class="subtitle">itemwise correctness, family behavior, and review pressure.</text>

  <rect x="70" y="182" width="320" height="302" rx="20" fill="#EEF6FF" stroke="#7AA8D8" stroke-width="2"/>
  <text x="96" y="218" class="label" fill="#0B57D0">LAYER 1 / CORE TASK SIGNAL</text>
  <text x="96" y="256" class="cardtitle">Did the model recover the</text>
  <text x="96" y="288" class="cardtitle">judgment structure?</text>
  <rect x="96" y="314" width="210" height="36" rx="10" fill="#FFFFFF"/>
  <rect x="96" y="358" width="210" height="36" rx="10" fill="#FFFFFF"/>
  <rect x="96" y="402" width="210" height="36" rx="10" fill="#FFFFFF"/>
  <rect x="96" y="446" width="210" height="36" rx="10" fill="#FFFFFF"/>
  <text x="114" y="337" class="chiptext">sphere_accuracy</text>
  <text x="114" y="381" class="chiptext">action_role_accuracy</text>
  <text x="114" y="425" class="chiptext">midpoint_trap_error_rate</text>
  <text x="114" y="469" class="chiptext">needs_more_info_f1</text>

  <rect x="440" y="182" width="320" height="302" rx="20" fill="#F3ECFF" stroke="#A58AD6" stroke-width="2"/>
  <text x="466" y="218" class="label" fill="#6C3FB2">LAYER 2 / FAMILY BEHAVIOR</text>
  <text x="466" y="256" class="cardtitle">Did the model stay stable</text>
  <text x="466" y="288" class="cardtitle">or shift when it should?</text>
  <rect x="466" y="314" width="224" height="36" rx="10" fill="#FFFFFF"/>
  <rect x="466" y="358" width="224" height="36" rx="10" fill="#FFFFFF"/>
  <rect x="466" y="402" width="224" height="36" rx="10" fill="#FFFFFF"/>
  <text x="484" y="337" class="chiptext">nuisance_invariance_score</text>
  <text x="484" y="381" class="chiptext">salience_responsiveness_score</text>
  <text x="484" y="425" class="chiptext">family_consistency_score</text>
  <text x="466" y="462" class="body">Read this together with core accuracy.</text>

  <rect x="810" y="182" width="320" height="302" rx="20" fill="#EAF8F0" stroke="#75B58E" stroke-width="2"/>
  <text x="836" y="218" class="label" fill="#0A7E3B">LAYER 3 / REVIEW PRESSURE</text>
  <text x="836" y="256" class="cardtitle">Which items are uncertain,</text>
  <text x="836" y="288" class="cardtitle">disputed, or worth review?</text>
  <rect x="836" y="314" width="218" height="36" rx="10" fill="#FFFFFF"/>
  <rect x="836" y="358" width="218" height="36" rx="10" fill="#FFFFFF"/>
  <rect x="836" y="402" width="218" height="36" rx="10" fill="#FFFFFF"/>
  <text x="854" y="337" class="chiptext">annotation_confidence</text>
  <text x="854" y="381" class="chiptext">disagreement_flags</text>
  <text x="854" y="425" class="chiptext">adjudication summaries</text>
  <text x="836" y="462" class="body">These fields audit label quality.</text>

  <text x="70" y="534" class="label" fill="#6A7684">HOW TO READ A RUN</text>

  <rect x="70" y="558" width="340" height="78" rx="18" fill="#FFF8E8" stroke="#DDBB73" stroke-width="2"/>
  <text x="96" y="604" class="footernum">1</text>
  <text x="132" y="596" class="footertext">Start with core correctness.</text>
  <text x="132" y="618" class="footertext">A stable but wrong model is still wrong.</text>

  <rect x="430" y="558" width="340" height="78" rx="18" fill="#FFF1EF" stroke="#D88C82" stroke-width="2"/>
  <text x="456" y="604" class="footernum">2</text>
  <text x="492" y="596" class="footertext">Then ask whether it changes correctly</text>
  <text x="492" y="618" class="footertext">across family variants.</text>

  <rect x="790" y="558" width="340" height="78" rx="18" fill="#EEF3FA" stroke="#8FA8C1" stroke-width="2"/>
  <text x="816" y="604" class="footernum">3</text>
  <text x="852" y="596" class="footertext">Finally inspect disagreement-heavy</text>
  <text x="852" y="618" class="footertext">or low-confidence items before concluding.</text>
</svg>
