<svg width="1200" height="690" viewBox="0 0 1200 690" fill="none" xmlns="http://www.w3.org/2000/svg" role="img" aria-labelledby="title desc">
  <title id="title">MESOTES benchmark scorecard</title>
  <desc id="desc">A benchmark scorecard showing three reading layers: core task signal, counterfactual family behavior, and review metadata, followed by a recommended order for interpretation.</desc>
  <defs>
    <style>
      .title { fill: #1E2A38; font-family: Georgia, 'Times New Roman', serif; font-size: 38px; font-weight: 700; }
      .subtitle { fill: #556270; font-family: Arial, Helvetica, sans-serif; font-size: 19px; }
      .label { font-family: Arial, Helvetica, sans-serif; font-size: 16px; font-weight: 700; letter-spacing: 1px; }
      .cardtitle { fill: #1E2A38; font-family: Arial, Helvetica, sans-serif; font-size: 24px; font-weight: 700; }
      .chip { fill: #243242; font-family: Arial, Helvetica, sans-serif; font-size: 16px; font-weight: 700; }
      .body { fill: #425164; font-family: Arial, Helvetica, sans-serif; font-size: 18px; }
      .stepnum { fill: #1E2A38; font-family: Arial, Helvetica, sans-serif; font-size: 24px; font-weight: 700; }
      .steptext { fill: #425164; font-family: Arial, Helvetica, sans-serif; font-size: 17px; }
    </style>
  </defs>

  <rect width="1200" height="690" rx="28" fill="#F7F3EA"/>
  <rect x="34" y="34" width="1132" height="622" rx="24" fill="#FFFDFC" stroke="#D8CFC1" stroke-width="2"/>

  <text x="70" y="96" class="title">What a MESOTES run tells you</text>
  <text x="70" y="126" class="subtitle">Read the output in three layers: correctness, behavior under change, and label-quality pressure.</text>

  <rect x="70" y="162" width="320" height="300" rx="20" fill="#EEF6FF" stroke="#7AA8D8" stroke-width="2"/>
  <text x="96" y="198" class="label" fill="#0B57D0">LAYER 1 / CORE TASK SIGNAL</text>
  <text x="96" y="238" class="cardtitle">Did the model recover the</text>
  <text x="96" y="270" class="cardtitle">judgment structure?</text>
  <rect x="96" y="294" width="210" height="36" rx="10" fill="#FFFFFF"/>
  <rect x="96" y="338" width="210" height="36" rx="10" fill="#FFFFFF"/>
  <rect x="96" y="382" width="210" height="36" rx="10" fill="#FFFFFF"/>
  <rect x="96" y="426" width="210" height="36" rx="10" fill="#FFFFFF"/>
  <text x="114" y="317" class="chip">sphere_accuracy</text>
  <text x="114" y="361" class="chip">action_role_accuracy</text>
  <text x="114" y="405" class="chip">midpoint_trap_error_rate</text>
  <text x="114" y="449" class="chip">needs_more_info_f1</text>

  <rect x="440" y="162" width="320" height="300" rx="20" fill="#F3ECFF" stroke="#A58AD6" stroke-width="2"/>
  <text x="466" y="198" class="label" fill="#6C3FB2">LAYER 2 / FAMILY BEHAVIOR</text>
  <text x="466" y="238" class="cardtitle">Did the model stay stable</text>
  <text x="466" y="270" class="cardtitle">or shift when it should?</text>
  <rect x="466" y="294" width="224" height="36" rx="10" fill="#FFFFFF"/>
  <rect x="466" y="338" width="224" height="36" rx="10" fill="#FFFFFF"/>
  <rect x="466" y="382" width="224" height="36" rx="10" fill="#FFFFFF"/>
  <text x="484" y="317" class="chip">nuisance_invariance_score</text>
  <text x="484" y="361" class="chip">salience_responsiveness_score</text>
  <text x="484" y="405" class="chip">family_consistency_score</text>
  <text x="466" y="446" class="body">Read these together with item accuracy.</text>

  <rect x="810" y="162" width="320" height="300" rx="20" fill="#EAF8F0" stroke="#75B58E" stroke-width="2"/>
  <text x="836" y="198" class="label" fill="#0A7E3B">LAYER 3 / REVIEW PRESSURE</text>
  <text x="836" y="238" class="cardtitle">Which items are uncertain,</text>
  <text x="836" y="270" class="cardtitle">disputed, or worth review?</text>
  <rect x="836" y="294" width="218" height="36" rx="10" fill="#FFFFFF"/>
  <rect x="836" y="338" width="218" height="36" rx="10" fill="#FFFFFF"/>
  <rect x="836" y="382" width="218" height="36" rx="10" fill="#FFFFFF"/>
  <text x="854" y="317" class="chip">annotation_confidence</text>
  <text x="854" y="361" class="chip">disagreement_flags</text>
  <text x="854" y="405" class="chip">adjudication summaries</text>
  <text x="836" y="446" class="body">These fields audit label quality.</text>

  <text x="70" y="514" class="label" fill="#6A7684">RECOMMENDED READING ORDER</text>

  <rect x="70" y="542" width="340" height="72" rx="18" fill="#FFF8E8" stroke="#DDBB73" stroke-width="2"/>
  <text x="96" y="585" class="stepnum">1</text>
  <text x="132" y="578" class="steptext">Start with core correctness.</text>
  <text x="132" y="600" class="steptext">A stable but wrong model is still wrong.</text>

  <rect x="430" y="542" width="340" height="72" rx="18" fill="#FFF1EF" stroke="#D88C82" stroke-width="2"/>
  <text x="456" y="585" class="stepnum">2</text>
  <text x="492" y="578" class="steptext">Then ask whether change happens</text>
  <text x="492" y="600" class="steptext">at the right counterfactual moments.</text>

  <rect x="790" y="542" width="340" height="72" rx="18" fill="#EEF3FA" stroke="#8FA8C1" stroke-width="2"/>
  <text x="816" y="585" class="stepnum">3</text>
  <text x="852" y="578" class="steptext">Finally inspect low-confidence</text>
  <text x="852" y="600" class="steptext">or disagreement-heavy items.</text>
</svg>
