<svg width="1200" height="700" viewBox="0 0 1200 700" fill="none" xmlns="http://www.w3.org/2000/svg" role="img" aria-labelledby="title desc">
  <title id="title">MESOTES overview</title>
  <desc id="desc">A concise overview of MESOTES showing the core question, dataset snapshot, and three capability pillars: structure the judgment, reject false moderation, and respond correctly to change.</desc>
  <defs>
    <style>
      .title { fill: #1E2A38; font-family: Georgia, 'Times New Roman', serif; font-size: 40px; font-weight: 700; }
      .subtitle { fill: #556270; font-family: Arial, Helvetica, sans-serif; font-size: 19px; }
      .label { font-family: Arial, Helvetica, sans-serif; font-size: 16px; font-weight: 700; letter-spacing: 1px; }
      .cardtitle { fill: #1E2A38; font-family: Arial, Helvetica, sans-serif; font-size: 25px; font-weight: 700; }
      .body { fill: #425164; font-family: Arial, Helvetica, sans-serif; font-size: 18px; }
      .metric { fill: #1E2A38; font-family: Arial, Helvetica, sans-serif; font-size: 30px; font-weight: 700; }
      .metriclabel { fill: #5B6773; font-family: Arial, Helvetica, sans-serif; font-size: 16px; }
      .footer { fill: #FFFFFF; font-family: Arial, Helvetica, sans-serif; font-size: 18px; }
    </style>
  </defs>

  <rect width="1200" height="700" rx="28" fill="#F7F3EA"/>
  <rect x="34" y="34" width="1132" height="632" rx="24" fill="#FFFDFC" stroke="#D8CFC1" stroke-width="2"/>

  <text x="70" y="96" class="title">MESOTES</text>
  <text x="70" y="126" class="subtitle">An Aristotelian benchmark for structured judgment, false-midpoint rejection, and counterfactual reasoning.</text>

  <rect x="70" y="162" width="560" height="160" rx="22" fill="#FFF8E8" stroke="#DDBB73" stroke-width="2"/>
  <text x="98" y="200" class="label" fill="#8A5B00">CORE QUESTION</text>
  <text x="98" y="242" class="cardtitle">Can a model judge well in context,</text>
  <text x="98" y="276" class="cardtitle">rather than simply sound ethical?</text>
  <text x="98" y="312" class="body">MESOTES tests framework fidelity, not generic verdict prediction.</text>

  <rect x="654" y="162" width="476" height="160" rx="22" fill="#EEF6FF" stroke="#7AA8D8" stroke-width="2"/>
  <text x="682" y="200" class="label" fill="#0B57D0">PILOT V2 SNAPSHOT</text>
  <rect x="682" y="224" width="92" height="74" rx="14" fill="#FFFFFF"/>
  <rect x="790" y="224" width="92" height="74" rx="14" fill="#FFFFFF"/>
  <rect x="898" y="224" width="92" height="74" rx="14" fill="#FFFFFF"/>
  <rect x="1006" y="224" width="92" height="74" rx="14" fill="#FFFFFF"/>
  <text x="708" y="258" class="metric">32</text>
  <text x="700" y="282" class="metriclabel">items</text>
  <text x="826" y="258" class="metric">8</text>
  <text x="810" y="282" class="metriclabel">spheres</text>
  <text x="934" y="258" class="metric">8</text>
  <text x="916" y="282" class="metriclabel">families</text>
  <text x="1022" y="258" class="metric">30</text>
  <text x="1013" y="282" class="metriclabel">trap cases</text>
  <text x="682" y="314" class="body">Includes needs-more-info items and no-mean exceptions.</text>

  <text x="70" y="372" class="label" fill="#6A7684">WHAT THE BENCHMARK ACTUALLY TESTS</text>

  <rect x="70" y="398" width="340" height="180" rx="20" fill="#F3ECFF" stroke="#A58AD6" stroke-width="2"/>
  <text x="96" y="434" class="label" fill="#6C3FB2">1. STRUCTURE THE JUDGMENT</text>
  <text x="96" y="474" class="cardtitle">Find the sphere and assign</text>
  <text x="96" y="506" class="cardtitle">deficiency, excess, and mean</text>
  <text x="96" y="546" class="body">primary sphere</text>
  <text x="96" y="570" class="body">action-role structure</text>

  <rect x="430" y="398" width="340" height="180" rx="20" fill="#FFF1EF" stroke="#D88C82" stroke-width="2"/>
  <text x="456" y="434" class="label" fill="#B74C3D">2. REJECT SHALLOW BALANCE</text>
  <text x="456" y="474" class="cardtitle">Reject fake moderation and</text>
  <text x="456" y="506" class="cardtitle">recognize under-specified cases</text>
  <text x="456" y="546" class="body">false midpoint traps</text>
  <text x="456" y="570" class="body">needs-more-info / no-mean cases</text>

  <rect x="790" y="398" width="340" height="180" rx="20" fill="#EAF8F0" stroke="#75B58E" stroke-width="2"/>
  <text x="816" y="434" class="label" fill="#0A7E3B">3. BEHAVE CORRECTLY UNDER CHANGE</text>
  <text x="816" y="474" class="cardtitle">Stay stable under nuisance</text>
  <text x="816" y="506" class="cardtitle">shifts and change under salience</text>
  <text x="816" y="546" class="body">counterfactual family analysis</text>
  <text x="816" y="570" class="body">agent / role / salience / detail shifts</text>

  <rect x="70" y="608" width="1060" height="36" rx="12" fill="#1E2A38"/>
  <text x="94" y="631" class="footer">MESOTES evaluates structured Aristotelian judgment: what matters, what is too little or too much, and when changing context should change the answer.</text>
</svg>
