<svg width="1200" height="720" viewBox="0 0 1200 720" fill="none" xmlns="http://www.w3.org/2000/svg" role="img" aria-labelledby="title desc">
  <title id="title">MESOTES overview</title>
  <desc id="desc">A clear overview of MESOTES showing the core research question, pilot snapshot, and the three kinds of capability the benchmark evaluates.</desc>
  <defs>
    <style>
      .title { fill: #1E2A38; font-family: Georgia, 'Times New Roman', serif; font-size: 40px; font-weight: 700; }
      .subtitle { fill: #556270; font-family: Arial, Helvetica, sans-serif; font-size: 20px; }
      .label { font-family: Arial, Helvetica, sans-serif; font-size: 16px; font-weight: 700; letter-spacing: 1px; }
      .cardtitle { fill: #1E2A38; font-family: Arial, Helvetica, sans-serif; font-size: 24px; font-weight: 700; }
      .body { fill: #425164; font-family: Arial, Helvetica, sans-serif; font-size: 18px; }
      .statnum { fill: #1E2A38; font-family: Arial, Helvetica, sans-serif; font-size: 30px; font-weight: 700; }
      .statlabel { fill: #5E6A75; font-family: Arial, Helvetica, sans-serif; font-size: 16px; }
      .footer { fill: #6A7684; font-family: Arial, Helvetica, sans-serif; font-size: 17px; }
    </style>
  </defs>

  <rect width="1200" height="720" rx="28" fill="#F7F3EA"/>
  <rect x="34" y="34" width="1132" height="652" rx="24" fill="#FFFDFC" stroke="#D8CFC1" stroke-width="2"/>

  <text x="70" y="96" class="title">MESOTES</text>
  <text x="70" y="128" class="subtitle">An Aristotelian benchmark for structured judgment, false-midpoint rejection,</text>
  <text x="70" y="154" class="subtitle">and counterfactual moral reasoning.</text>

  <rect x="70" y="188" width="520" height="158" rx="20" fill="#FFF8E8" stroke="#DDBB73" stroke-width="2"/>
  <text x="96" y="224" class="label" fill="#8A5B00">CORE RESEARCH QUESTION</text>
  <text x="96" y="262" class="cardtitle">Can a model judge well in context,</text>
  <text x="96" y="294" class="cardtitle">rather than simply sound ethical?</text>
  <text x="96" y="326" class="body">Framework fidelity, not generic verdict prediction.</text>

  <rect x="610" y="188" width="520" height="158" rx="20" fill="#EEF6FF" stroke="#7AA8D8" stroke-width="2"/>
  <text x="636" y="224" class="label" fill="#0B57D0">PILOT V2 AT A GLANCE</text>
  <rect x="636" y="246" width="108" height="72" rx="14" fill="#FFFFFF"/>
  <rect x="760" y="246" width="108" height="72" rx="14" fill="#FFFFFF"/>
  <rect x="884" y="246" width="108" height="72" rx="14" fill="#FFFFFF"/>
  <rect x="1008" y="246" width="96" height="72" rx="14" fill="#FFFFFF"/>
  <text x="668" y="276" class="statnum">32</text>
  <text x="654" y="300" class="statlabel">items</text>
  <text x="794" y="276" class="statnum">8</text>
  <text x="777" y="300" class="statlabel">spheres</text>
  <text x="918" y="276" class="statnum">8</text>
  <text x="899" y="300" class="statlabel">families</text>
  <text x="1028" y="276" class="statnum">30</text>
  <text x="1017" y="300" class="statlabel">trap cases</text>
  <text x="636" y="334" class="body">Includes under-specified items and no-mean exceptions.</text>

  <text x="70" y="386" class="label" fill="#6A7684">WHAT MODELS MUST DO</text>

  <rect x="70" y="410" width="340" height="190" rx="20" fill="#F3ECFF" stroke="#A58AD6" stroke-width="2"/>
  <text x="96" y="446" class="label" fill="#6C3FB2">1. STRUCTURE THE JUDGMENT</text>
  <text x="96" y="484" class="cardtitle">Identify the sphere and the</text>
  <text x="96" y="516" class="cardtitle">roles of the candidate actions</text>
  <text x="96" y="554" class="body">primary sphere</text>
  <text x="96" y="580" class="body">deficiency / excess / mean</text>

  <rect x="430" y="410" width="340" height="190" rx="20" fill="#FFF1EF" stroke="#D88C82" stroke-width="2"/>
  <text x="456" y="446" class="label" fill="#B74C3D">2. AVOID SHALLOW MODERATION</text>
  <text x="456" y="484" class="cardtitle">Reject fake balance and know</text>
  <text x="456" y="516" class="cardtitle">when judgment is under-specified</text>
  <text x="456" y="554" class="body">false midpoint traps</text>
  <text x="456" y="580" class="body">needs-more-info / no-mean cases</text>

  <rect x="790" y="410" width="340" height="190" rx="20" fill="#EAF8F0" stroke="#75B58E" stroke-width="2"/>
  <text x="816" y="446" class="label" fill="#0A7E3B">3. BEHAVE CORRECTLY UNDER CHANGE</text>
  <text x="816" y="484" class="cardtitle">Stay stable under nuisance shifts</text>
  <text x="816" y="516" class="cardtitle">and change when salience shifts</text>
  <text x="816" y="554" class="body">counterfactual family analysis</text>
  <text x="816" y="580" class="body">agent / role / salience / detail shifts</text>

  <text x="70" y="646" class="footer">MESOTES evaluates structured Aristotelian judgment:</text>
  <text x="70" y="670" class="footer">what matters, what is too little or too much, and when changing context should change the answer.</text>
</svg>
